<svg width="24" height="24" fill="none" xmlns="http://www.w3.org/2000/svg">
    <path
        d="M8 4h-.8c-1.12 0-1.68 0-2.108.218a1.999 1.999 0 0 0-.874.874C4 5.52 4 6.08 4 7.2v9.6c0 1.12 0 1.68.218 2.108a2 2 0 0 0 .874.874c.427.218.987.218 2.105.218H8M8 4h8.8c1.12 0 1.68 0 2.107.218.377.192.683.497.875.874.218.427.218.987.218 2.105v9.607c0 1.118 0 1.677-.218 2.104a2.002 2.002 0 0 1-.875.874c-.427.218-.986.218-2.104.218H8M8 4v16m4-9h4m-4-3h4"
        stroke="#A6A6A6" stroke-width="2" stroke-linecap="round" stroke-linejoin="round" />
</svg>